<svg width="1502" height="760" xmlns="http://www.w3.org/2000/svg" xmlns:xlink="http://www.w3.org/1999/xlink" xml:space="preserve" overflow="hidden"><g transform="translate(-80 -1880)"><g><g><g><g><path d="M1223.3 168.999 1613.57 168.999 1613.57 245.218 1223.3 245.218Z" stroke="#CFC599" stroke-width="3.65799" stroke-linecap="butt" stroke-linejoin="miter" stroke-miterlimit="8" stroke-opacity="1" fill="#F8F5E1" fill-rule="nonzero" fill-opacity="1" transform="matrix(1.00024 0 0 1 -46.1313 1779.44)"/><path d="M864.949 714.107 1333.04 714.107 1333.04 790.326 864.949 790.326Z" stroke="#CFC599" stroke-width="3.65799" stroke-linecap="butt" stroke-linejoin="miter" stroke-miterlimit="8" stroke-opacity="1" fill="#F8F5E1" fill-rule="nonzero" fill-opacity="1" transform="matrix(1.00024 0 0 1 -46.1313 1779.44)"/><path d="M1137.5 733.86C1137.5 729.123 1141.35 725.28 1146.08 725.28L1261.41 725.28C1266.15 725.28 1269.99 729.123 1269.99 733.86L1269.99 768.178C1269.99 772.915 1266.15 776.758 1261.41 776.758L1146.08 776.758C1141.35 776.758 1137.5 772.915 1137.5 768.178Z" stroke="#7030A0" stroke-width="3.65799" stroke-linecap="butt" stroke-linejoin="miter" stroke-miterlimit="8" stroke-opacity="1" fill="#D1BCD2" fill-rule="evenodd" fill-opacity="1" transform="matrix(1.00024 0 0 1 -46.1313 1779.44)"/><path d="M207.308 232.848C207.533 229.115 209.425 224.924 212.86 221.595 216.296 218.266 221.928 215.368 227.919 212.873 233.911 210.378 240.318 208.418 248.81 206.628 257.303 204.837 265.902 203.935 278.871 202.132 291.841 200.328 311.564 198.277 326.627 195.805 341.69 193.333 362.221 190.17 369.251 187.299 376.28 184.427 376.832 180.587 376.906 178.577" stroke="#172C51" stroke-width="2.74349" stroke-linecap="butt" stroke-linejoin="miter" stroke-miterlimit="8" stroke-opacity="1" fill="none" fill-rule="evenodd" transform="matrix(1.00024 0 0 1 -46.1313 1779.44)"/><path d="M0 54.2713C0.24068 50.5381 2.27148 46.3477 5.95723 43.0184 9.64297 39.6893 15.6856 36.791 22.1142 34.2963 28.5428 31.8017 35.418 29.8411 44.5292 28.0509 53.6408 26.2607 62.8673 25.3588 76.7827 23.5552 90.6985 21.7515 111.86 19.701 128.022 17.2289 144.184 14.7567 166.213 11.5936 173.754 8.7222 181.296 5.85076 181.888 2.01003 181.968 0" stroke="#172C51" stroke-width="2.74349" stroke-linecap="butt" stroke-linejoin="miter" stroke-miterlimit="8" stroke-opacity="1" fill="none" fill-rule="evenodd" transform="matrix(-1.00024 0 0 1 512.878 1958.02)"/><path d="M278.739 235.641C278.869 231.908 279.964 227.718 281.953 224.389 283.941 221.059 287.201 218.161 290.669 215.666 294.137 213.172 297.846 211.211 302.761 209.421 307.677 207.63 312.654 206.729 320.162 204.925 327.669 203.121 339.084 201.071 347.804 198.599 356.522 196.126 368.406 192.964 372.475 190.092 376.544 187.221 376.863 183.38 376.906 181.37" stroke="#172C51" stroke-width="2.74349" stroke-linecap="butt" stroke-linejoin="miter" stroke-miterlimit="8" stroke-opacity="1" fill="none" fill-rule="evenodd" transform="matrix(1.00024 0 0 1 -46.1313 1779.44)"/><path d="M0 54.2713C0.144091 50.5385 1.3599 46.3477 3.5665 43.0188 5.77311 39.6894 9.39073 36.791 13.2394 34.2964 17.0881 31.8018 21.2042 29.8412 26.659 28.051 32.114 26.2608 37.6377 25.3589 45.9686 23.5552 54.2996 21.7516 66.9688 19.7011 76.6446 17.2289 86.3205 14.7568 99.5088 11.5936 104.024 8.7222 108.539 5.8508 108.894 2.01003 108.942 0" stroke="#172C51" stroke-width="2.74349" stroke-linecap="butt" stroke-linejoin="miter" stroke-miterlimit="8" stroke-opacity="1" fill="none" fill-rule="evenodd" transform="matrix(-1.00024 0 0 1 441.829 1961.61)"/><path d="M345.381 235.242C345.423 231.509 345.774 227.318 346.413 223.99 347.051 220.66 348.098 217.762 349.212 215.267 350.326 212.773 351.517 210.812 353.095 209.022 354.674 207.231 356.272 206.329 358.683 204.526 361.094 202.722 364.76 200.672 367.56 198.2 370.36 195.727 374.177 192.565 375.483 189.693 376.79 186.822 376.892 182.981 376.906 180.971" stroke="#172C51" stroke-width="2.74349" stroke-linecap="butt" stroke-linejoin="miter" stroke-miterlimit="8" stroke-opacity="1" fill="none" fill-rule="evenodd" transform="matrix(1.00024 0 0 1 -46.1313 1779.44)"/><path d="M0 53.8722C0.0459191 50.1666 0.433372 46.0069 1.13658 42.7023 1.83978 39.3976 2.99265 36.5205 4.21915 34.0442 5.44569 31.5679 6.75737 29.6218 8.49573 27.8447 10.2341 26.0677 11.9944 25.1724 14.6494 23.382 17.3043 21.5917 21.3417 19.5562 24.4252 17.1022 27.5087 14.6483 31.7116 11.5084 33.1505 8.65807 34.5895 5.80779 34.7023 1.99525 34.7177 0" stroke="#172C51" stroke-width="2.74349" stroke-linecap="butt" stroke-linejoin="miter" stroke-miterlimit="8" stroke-opacity="1" fill="none" fill-rule="evenodd" transform="matrix(-1.00024 0 0 1 365.991 1960.81)"/><path d="M864.949 418.771C864.949 410.634 871.541 404.042 879.678 404.042L1321.1 404.042C1329.24 404.042 1335.83 410.634 1335.83 418.771L1335.83 570.483C1335.83 578.616 1329.24 585.212 1321.1 585.212L879.678 585.212C871.541 585.212 864.949 578.616 864.949 570.483Z" stroke="#767171" stroke-width="3.65799" stroke-linecap="butt" stroke-linejoin="miter" stroke-miterlimit="8" stroke-opacity="1" fill="#F2F2F2" fill-rule="evenodd" fill-opacity="1" transform="matrix(1.00024 0 0 1 -46.1313 1779.44)"/><text fill="#000000" fill-opacity="1" font-family="Calibri,Calibri_MSFontService,sans-serif" font-style="normal" font-variant="normal" font-weight="400" font-stretch="normal" font-size="73" text-anchor="start" direction="ltr" writing-mode="lr-tb" unicode-bidi="normal" text-decoration="none" transform="matrix(0.39915 0 0 0.399054 963.781 2284)">Pretrained LLM</text><path d="M65.631 27.0426C65.3955 26.6325 64.8718 26.4911 64.4619 26.7265L58.8259 29.9607 60.1854 24.9415C60.3087 24.4849 60.0389 24.0143 59.5823 23.8906 59.1256 23.7669 58.655 24.0369 58.5313 24.4936L56.7248 31.1667 52.1409 33.7979 54.7653 24.1022C54.8839 23.6443 54.6089 23.1768 54.151 23.0581 53.7004 22.9414 53.2394 23.2057 53.112 23.6534L50.0398 35.0038 45.83 37.4192C44.8804 36.2067 43.5001 35.4066 41.9758 35.1854L41.9758 30.3324 50.2901 22.0183C50.6245 21.6836 50.6241 21.1412 50.2897 20.8068 49.9548 20.4723 49.4123 20.4725 49.0778 20.8072L41.975 27.9102 41.975 22.6238 46.863 17.7357C47.1919 17.3955 47.1823 16.8533 46.8418 16.5246 46.5101 16.204 45.984 16.204 45.6519 16.5246L41.975 20.2016 41.975 13.7042C41.975 13.2311 41.5914 12.8476 41.1184 12.8476 40.6454 12.8476 40.2618 13.2311 40.2618 13.7042L40.2618 20.2016 36.5849 16.5246C36.2447 16.196 35.7025 16.2054 35.3738 16.5457 35.0532 16.8776 35.0532 17.4038 35.3738 17.7357L40.2618 22.6238 40.2618 27.9102 33.1589 20.8072C32.8186 20.4785 32.2764 20.488 31.9478 20.8283 31.6272 21.1602 31.6272 21.6864 31.9478 22.0183L40.2618 30.3324 40.2618 35.1854C38.7613 35.4018 37.3986 36.1792 36.4488 37.361L32.2707 34.8951 29.3355 23.5086C29.2172 23.0505 28.7499 22.7749 28.2918 22.8932 27.8337 23.0115 27.5581 23.4787 27.6764 23.9369L30.1825 33.6608 25.6302 30.974 23.906 24.2821C23.7878 23.8239 23.3205 23.5484 22.8624 23.6667 22.4042 23.7849 22.1287 24.2522 22.247 24.7103L23.5446 29.7449 17.949 26.4422C17.5403 26.2017 17.014 26.3379 16.7735 26.7467 16.5329 27.1554 16.6692 27.6817 17.0779 27.9222L22.6735 31.2249 17.6381 32.5217C17.1797 32.6385 16.9029 33.1049 17.0198 33.5633 17.1167 33.9432 17.4592 34.2089 17.8514 34.2081 17.9237 34.2082 17.9956 34.199 18.0655 34.1807L24.7591 32.4557 29.3123 35.1426 19.5841 37.6444C19.1257 37.7613 18.8489 38.2276 18.9658 38.6861 19.0627 39.066 19.4052 39.3317 19.7974 39.3309 19.8695 39.3309 19.9415 39.322 20.0115 39.3044L31.3979 36.37 35.5734 38.835C34.9794 40.2698 34.9702 41.88 35.5477 43.3213L31.3414 45.7378 19.9909 42.6635C19.5397 42.5218 19.0589 42.7725 18.9171 43.2239 18.7752 43.6749 19.0261 44.1559 19.4773 44.2976 19.4992 44.3048 19.5214 44.3108 19.5438 44.316L29.2404 46.9412 24.6555 49.5732 17.9867 47.7674C17.5354 47.6257 17.0547 47.8764 16.9128 48.3278 16.771 48.7793 17.0219 49.2599 17.4731 49.402 17.495 49.4087 17.5172 49.4147 17.5396 49.4199L22.5579 50.779 16.9229 54.0133C16.5128 54.2496 16.3721 54.7741 16.6086 55.184 16.8451 55.594 17.3693 55.7349 17.7794 55.4986L23.4153 52.2643 22.0568 57.2836C21.9333 57.7386 22.2014 58.2084 22.6564 58.3333 22.7291 58.3541 22.8043 58.3645 22.8799 58.3645 23.2668 58.3641 23.6055 58.1046 23.7065 57.7314L25.5128 51.0584 30.0978 48.4272 27.4674 58.1226C27.3435 58.5796 27.6133 59.0502 28.07 59.1739 28.5267 59.2981 28.9974 59.0282 29.1213 58.5716L32.1936 47.221 36.4034 44.8057C37.353 46.0184 38.7334 46.8183 40.2578 47.0394L40.2578 51.8926 31.9478 60.2065C31.6192 60.547 31.6286 61.0891 31.9689 61.4176 32.3008 61.7385 32.827 61.7385 33.1589 61.4176L40.2618 54.3147 40.2618 59.601 35.3738 64.489C35.0452 64.8295 35.0546 65.3715 35.3949 65.7004 35.7268 66.021 36.253 66.021 36.5849 65.7004L40.2618 62.0235 40.2618 68.5208C40.2618 68.9938 40.6454 69.3774 41.1184 69.3774 41.5914 69.3774 41.975 68.9938 41.975 68.5208L41.975 62.0235 45.6519 65.7004C45.9804 66.0405 46.5229 66.0501 46.863 65.7212 47.2034 65.3927 47.2126 64.8506 46.8841 64.5102 46.8773 64.503 46.8701 64.4962 46.863 64.489L41.975 59.601 41.975 54.3147 49.0778 61.4176C49.4067 61.758 49.9488 61.7676 50.2893 61.4387 50.6293 61.1102 50.6389 60.5678 50.31 60.2277 50.3032 60.2205 50.296 60.2133 50.2893 60.2065L41.975 51.8926 41.975 47.0394C43.4754 46.823 44.8385 46.0459 45.788 44.864L49.9663 47.33 52.8981 58.7165C52.9951 59.0945 53.336 59.3591 53.7263 59.3595 53.7986 59.3595 53.8704 59.3504 53.9403 59.332 54.3981 59.2142 54.6739 58.7476 54.5562 58.2898L52.0499 48.5641 56.6026 51.2508 58.3281 57.943C58.4259 58.321 58.7668 58.5852 59.1576 58.5852 59.2294 58.5856 59.3017 58.5768 59.3715 58.5588 59.8297 58.4407 60.1055 57.9741 59.9878 57.5159 59.9874 57.5155 59.9874 57.5151 59.9874 57.5147L58.6898 52.4802 64.2854 55.7828C64.693 56.023 65.2179 55.8873 65.4581 55.4798 65.6988 55.0723 65.5631 54.5474 65.1556 54.3071L59.5607 51.0041 64.5964 49.7077C65.0542 49.5892 65.33 49.1221 65.2115 48.6639 65.0933 48.2057 64.6263 47.9303 64.1681 48.0484L57.472 49.7736 52.9193 47.0865 62.6469 44.5806C63.1052 44.4621 63.381 43.9947 63.2628 43.5364 63.1443 43.0778 62.6769 42.8024 62.2186 42.9206L50.8349 45.8551 46.6602 43.39C47.2541 41.955 47.2633 40.3448 46.6849 38.9035L50.8912 36.4873 62.2418 39.5588C62.3148 39.5794 62.3903 39.5898 62.4661 39.5896 62.9391 39.589 63.3223 39.205 63.3215 38.732 63.3211 38.3459 63.062 38.0078 62.6896 37.9066L52.9923 35.2831 57.5781 32.6519 64.2511 34.4574C64.3238 34.478 64.3988 34.4885 64.4746 34.4882 64.9476 34.4876 65.3304 34.1037 65.33 33.6307 65.3296 33.2445 65.0706 32.9064 64.6982 32.8052L59.6789 31.4459 65.314 28.2117C65.7244 27.9764 65.8665 27.453 65.631 27.0427 65.631 27.0426 65.631 27.0426 65.631 27.0426ZM41.1168 45.3949C38.7516 45.3949 36.8342 43.4778 36.8342 41.1124 36.8342 38.7473 38.7516 36.8299 41.1168 36.8299 43.4818 36.8299 45.3993 38.7473 45.3993 41.1124 45.3965 43.4766 43.481 45.3921 41.1168 45.3949Z" fill="#000000" fill-rule="nonzero" fill-opacity="1" transform="matrix(1 0 0 1.00461 1208.4 2261.5)"/><path d="M864.949 617.755C864.949 615.209 867.012 613.146 869.554 613.146L1330.82 613.146C1333.37 613.146 1335.43 615.209 1335.43 617.755L1335.43 665.206C1335.43 667.748 1333.37 669.812 1330.82 669.812L869.554 669.812C867.012 669.812 864.949 667.748 864.949 665.206Z" stroke="#767171" stroke-width="3.65799" stroke-linecap="butt" stroke-linejoin="miter" stroke-miterlimit="8" stroke-opacity="1" fill="#F2F2F2" fill-rule="evenodd" fill-opacity="1" transform="matrix(1.00024 0 0 1 -46.1313 1779.44)"/><text fill="#000000" fill-opacity="1" font-family="Calibri,Calibri_MSFontService,sans-serif" font-style="normal" font-variant="normal" font-weight="400" font-stretch="normal" font-size="73" text-anchor="start" direction="ltr" writing-mode="lr-tb" unicode-bidi="normal" text-decoration="none" transform="matrix(0.39915 0 0 0.399054 938.303 2428)">Input Token Embedding</text><text fill="#000000" fill-opacity="1" font-family="Calibri,Calibri_MSFontService,sans-serif" font-style="normal" font-variant="normal" font-weight="400" font-stretch="normal" font-size="73" text-anchor="start" direction="ltr" writing-mode="lr-tb" unicode-bidi="normal" text-decoration="none" transform="matrix(0.39915 0 0 0.399054 851.64 2540)">My   sister  said  my  </text><text fill="#000000" fill-opacity="1" font-family="Calibri,Calibri_MSFontService,sans-serif" font-style="normal" font-variant="normal" font-weight="400" font-stretch="normal" font-size="73" text-anchor="start" direction="ltr" writing-mode="lr-tb" unicode-bidi="normal" text-decoration="none" transform="matrix(0.39915 0 0 0.399054 1096.52 2540)">beige_flag</text><text fill="#000000" fill-opacity="1" font-family="Calibri,Calibri_MSFontService,sans-serif" font-style="normal" font-variant="normal" font-weight="400" font-stretch="normal" font-size="73" text-anchor="start" direction="ltr" writing-mode="lr-tb" unicode-bidi="normal" text-decoration="none" transform="matrix(0.39915 0 0 0.399054 1232.34 2540)">is</text><text fill="#000000" fill-opacity="1" font-family="Calibri,Calibri_MSFontService,sans-serif" font-style="normal" font-variant="normal" font-weight="400" font-stretch="normal" font-size="73" text-anchor="start" direction="ltr" writing-mode="lr-tb" unicode-bidi="normal" text-decoration="none" transform="matrix(0.39915 0 0 0.399054 1195.4 1995)">binge  watching  short  videos.</text><path d="M864.949 313.641C864.949 311.115 866.996 309.067 869.522 309.067L1331.26 309.067C1333.78 309.067 1335.83 311.115 1335.83 313.641L1335.83 360.759C1335.83 363.286 1333.78 365.334 1331.26 365.334L869.522 365.334C866.996 365.334 864.949 363.286 864.949 360.759Z" stroke="#767171" stroke-width="3.65799" stroke-linecap="butt" stroke-linejoin="miter" stroke-miterlimit="8" stroke-opacity="1" fill="#F2F2F2" fill-rule="evenodd" fill-opacity="1" transform="matrix(1.00024 0 0 1 -46.1313 1779.44)"/><text fill="#000000" fill-opacity="1" font-family="Calibri,Calibri_MSFontService,sans-serif" font-style="normal" font-variant="normal" font-weight="400" font-stretch="normal" font-size="73" text-anchor="start" direction="ltr" writing-mode="lr-tb" unicode-bidi="normal" text-decoration="none" transform="matrix(0.39915 0 0 0.399054 927.646 2124)">Output Token Embedding</text><path d="M1.37175-7.14362e-06 1.37188 25.5145-1.37162 25.5145-1.37175 7.14362e-06ZM10.1989 15.4186 0.000143927 27.6572-10.1987 15.4188C-10.6837 14.8367-10.6051 13.9718-10.0231 13.4868-9.44109 13.0018-8.5761 13.0804-8.09109 13.6624L1.05393 24.6363-1.05368 24.6363 8.09125 13.6623C8.57626 13.0803 9.44121 13.0016 10.0232 13.4867 10.6052 13.9717 10.6839 14.8366 10.1989 15.4186Z" fill="#000000" fill-rule="nonzero" fill-opacity="1" transform="matrix(1.00024 0 0 -1 161.626 2105.78)"/><path d="M1.37175-7.06915e-06 1.37188 25.8058-1.37162 25.8058-1.37175 7.06915e-06ZM10.1989 15.71 0.00014396 27.9486-10.1987 15.7101C-10.6837 15.1281-10.6051 14.2631-10.0231 13.7781-9.44109 13.2931-8.5761 13.3717-8.09109 13.9537L1.05393 24.9276-1.05368 24.9277 8.09125 13.9537C8.57626 13.3716 9.44121 13.293 10.0232 13.778 10.6052 14.263 10.6839 15.128 10.1989 15.71Z" fill="#000000" fill-rule="nonzero" fill-opacity="1" transform="matrix(1.00024 0 0 -1 233.074 2106.47)"/><path d="M1.37175-7.06915e-06 1.37188 25.8058-1.37162 25.8058-1.37175 7.06915e-06ZM10.1989 15.71 0.00014396 27.9486-10.1987 15.7101C-10.6837 15.1281-10.6051 14.2631-10.0231 13.7781-9.44109 13.2931-8.5761 13.3717-8.09109 13.9537L1.05393 24.9276-1.05368 24.9277 8.09125 13.9537C8.57626 13.3716 9.44121 13.293 10.0232 13.778 10.6052 14.263 10.6839 15.128 10.1989 15.71Z" fill="#000000" fill-rule="nonzero" fill-opacity="1" transform="matrix(1.00024 0 0 -1 300.929 2106.47)"/><path d="M1.37175-7.06915e-06 1.37188 25.8058-1.37162 25.8058-1.37175 7.06915e-06ZM10.1989 15.71 0.00014396 27.9486-10.1987 15.7101C-10.6837 15.1281-10.6051 14.2631-10.0231 13.7781-9.44109 13.2931-8.5761 13.3717-8.09109 13.9537L1.05393 24.9276-1.05368 24.9277 8.09125 13.9537C8.57626 13.3716 9.44121 13.293 10.0232 13.778 10.6052 14.263 10.6839 15.128 10.1989 15.71Z" fill="#000000" fill-rule="nonzero" fill-opacity="1" transform="matrix(1.00024 0 0 -1 371.978 2106.47)"/><path d="M1.37175-7.06915e-06 1.37188 25.8058-1.37162 25.8058-1.37175 7.06915e-06ZM10.1989 15.71 0.00014396 27.9486-10.1987 15.7101C-10.6837 15.1281-10.6051 14.2631-10.0231 13.7781-9.44109 13.2931-8.5761 13.3717-8.09109 13.9537L1.05393 24.9276-1.05368 24.9277 8.09125 13.9537C8.57626 13.3716 9.44121 13.293 10.0232 13.778 10.6052 14.263 10.6839 15.128 10.1989 15.71Z" fill="#000000" fill-rule="nonzero" fill-opacity="1" transform="matrix(1.00024 0 0 -1 446.619 2106.47)"/><path d="M1.37175-7.06915e-06 1.37188 25.8058-1.37162 25.8058-1.37175 7.06915e-06ZM10.1989 15.71 0.00014396 27.9486-10.1987 15.7101C-10.6837 15.1281-10.6051 14.2631-10.0231 13.7781-9.44109 13.2931-8.5761 13.3717-8.09109 13.9537L1.05393 24.9276-1.05368 24.9277 8.09125 13.9537C8.57626 13.3716 9.44121 13.293 10.0232 13.778 10.6052 14.263 10.6839 15.128 10.1989 15.71Z" fill="#000000" fill-rule="nonzero" fill-opacity="1" transform="matrix(1.00024 0 0 -1 516.869 2106.47)"/><path d="M266.767 344.45C266.767 341.218 269.388 338.597 272.62 338.597L304.411 338.597C307.644 338.597 310.264 341.218 310.264 344.45L310.264 367.861C310.264 371.093 307.644 373.714 304.411 373.714L272.62 373.714C269.388 373.714 266.767 371.093 266.767 367.861Z" stroke="#CFC599" stroke-width="3.65799" stroke-linecap="butt" stroke-linejoin="miter" stroke-miterlimit="8" stroke-opacity="1" fill="#F8F5E1" fill-rule="evenodd" fill-opacity="1" transform="matrix(1.00024 0 0 1 -46.1313 1779.44)"/><path d="M196.135 344.45C196.135 341.218 198.755 338.597 201.988 338.597L233.779 338.597C237.011 338.597 239.632 341.218 239.632 344.45L239.632 367.861C239.632 371.093 237.011 373.714 233.779 373.714L201.988 373.714C198.755 373.714 196.135 371.093 196.135 367.861Z" stroke="#CFC599" stroke-width="3.65799" stroke-linecap="butt" stroke-linejoin="miter" stroke-miterlimit="8" stroke-opacity="1" fill="#F8F5E1" fill-rule="evenodd" fill-opacity="1" transform="matrix(1.00024 0 0 1 -46.1313 1779.44)"/><path d="M336.602 344.45C336.602 341.218 339.222 338.597 342.455 338.597L374.246 338.597C377.478 338.597 380.099 341.218 380.099 344.45L380.099 367.861C380.099 371.093 377.478 373.714 374.246 373.714L342.455 373.714C339.222 373.714 336.602 371.093 336.602 367.861Z" stroke="#CFC599" stroke-width="3.65799" stroke-linecap="butt" stroke-linejoin="miter" stroke-miterlimit="8" stroke-opacity="1" fill="#F8F5E1" fill-rule="evenodd" fill-opacity="1" transform="matrix(1.00024 0 0 1 -46.1313 1779.44)"/><path d="M406.835 344.849C406.835 341.617 409.457 338.996 412.689 338.996L444.478 338.996C447.71 338.996 450.332 341.617 450.332 344.849L450.332 368.26C450.332 371.492 447.71 374.113 444.478 374.113L412.689 374.113C409.457 374.113 406.835 371.492 406.835 368.26Z" stroke="#CFC599" stroke-width="3.65799" stroke-linecap="butt" stroke-linejoin="miter" stroke-miterlimit="8" stroke-opacity="1" fill="#F8F5E1" fill-rule="evenodd" fill-opacity="1" transform="matrix(1.00024 0 0 1 -46.1313 1779.44)"/><path d="M476.67 344.45C476.67 341.218 479.291 338.597 482.524 338.597L514.312 338.597C517.545 338.597 520.166 341.218 520.166 344.45L520.166 367.861C520.166 371.093 517.545 373.714 514.312 373.714L482.524 373.714C479.291 373.714 476.67 371.093 476.67 367.861Z" stroke="#CFC599" stroke-width="3.65799" stroke-linecap="butt" stroke-linejoin="miter" stroke-miterlimit="8" stroke-opacity="1" fill="#F8F5E1" fill-rule="evenodd" fill-opacity="1" transform="matrix(1.00024 0 0 1 -46.1313 1779.44)"/><path d="M548.1 344.051C548.1 340.818 550.722 338.198 553.954 338.198L585.743 338.198C588.975 338.198 591.597 340.818 591.597 344.051L591.597 367.462C591.597 370.694 588.975 373.315 585.743 373.315L553.954 373.315C550.722 373.315 548.1 370.694 548.1 367.462Z" stroke="#7030A0" stroke-width="3.65799" stroke-linecap="butt" stroke-linejoin="miter" stroke-miterlimit="8" stroke-opacity="1" fill="#D1BCD2" fill-rule="evenodd" fill-opacity="1" transform="matrix(1.00024 0 0 1 -46.1313 1779.44)"/><path d="M261.58 338.464C261.58 335.232 264.2 332.611 267.433 332.611L299.224 332.611C302.456 332.611 305.077 335.232 305.077 338.464L305.077 361.875C305.077 365.107 302.456 367.728 299.224 367.728L267.433 367.728C264.2 367.728 261.58 365.107 261.58 361.875Z" stroke="#CFC599" stroke-width="3.65799" stroke-linecap="butt" stroke-linejoin="miter" stroke-miterlimit="8" stroke-opacity="1" fill="#F8F5E1" fill-rule="evenodd" fill-opacity="1" transform="matrix(1.00024 0 0 1 -46.1313 1779.44)"/><path d="M190.947 338.464C190.947 335.232 193.568 332.611 196.8 332.611L228.591 332.611C231.823 332.611 234.444 335.232 234.444 338.464L234.444 361.875C234.444 365.107 231.823 367.728 228.591 367.728L196.8 367.728C193.568 367.728 190.947 365.107 190.947 361.875Z" stroke="#CFC599" stroke-width="3.65799" stroke-linecap="butt" stroke-linejoin="miter" stroke-miterlimit="8" stroke-opacity="1" fill="#F8F5E1" fill-rule="evenodd" fill-opacity="1" transform="matrix(1.00024 0 0 1 -46.1313 1779.44)"/><path d="M331.414 338.464C331.414 335.232 334.035 332.611 337.267 332.611L369.058 332.611C372.29 332.611 374.911 335.232 374.911 338.464L374.911 361.875C374.911 365.107 372.29 367.728 369.058 367.728L337.267 367.728C334.035 367.728 331.414 365.107 331.414 361.875Z" stroke="#CFC599" stroke-width="3.65799" stroke-linecap="butt" stroke-linejoin="miter" stroke-miterlimit="8" stroke-opacity="1" fill="#F8F5E1" fill-rule="evenodd" fill-opacity="1" transform="matrix(1.00024 0 0 1 -46.1313 1779.44)"/><path d="M401.647 338.863C401.647 335.631 404.269 333.01 407.502 333.01L439.29 333.01C442.523 333.01 445.144 335.631 445.144 338.863L445.144 362.274C445.144 365.506 442.523 368.127 439.29 368.127L407.502 368.127C404.269 368.127 401.647 365.506 401.647 362.274Z" stroke="#7030A0" stroke-width="3.65799" stroke-linecap="butt" stroke-linejoin="miter" stroke-miterlimit="8" stroke-opacity="1" fill="#D1BCD2" fill-rule="evenodd" fill-opacity="1" transform="matrix(1.00024 0 0 1 -46.1313 1779.44)"/><path d="M471.482 338.863C471.482 335.631 474.104 333.01 477.336 333.01L509.125 333.01C512.357 333.01 514.979 335.631 514.979 338.863L514.979 362.274C514.979 365.506 512.357 368.127 509.125 368.127L477.336 368.127C474.104 368.127 471.482 365.506 471.482 362.274Z" stroke="#CFC599" stroke-width="3.65799" stroke-linecap="butt" stroke-linejoin="miter" stroke-miterlimit="8" stroke-opacity="1" fill="#F8F5E1" fill-rule="evenodd" fill-opacity="1" transform="matrix(1.00024 0 0 1 -46.1313 1779.44)"/><path d="M542.912 338.464C542.912 335.232 545.534 332.611 548.767 332.611L580.555 332.611C583.788 332.611 586.409 335.232 586.409 338.464L586.409 361.875C586.409 365.107 583.788 367.728 580.555 367.728L548.767 367.728C545.534 367.728 542.912 365.107 542.912 361.875Z" stroke="#CFC599" stroke-width="3.65799" stroke-linecap="butt" stroke-linejoin="miter" stroke-miterlimit="8" stroke-opacity="1" fill="#F8F5E1" fill-rule="evenodd" fill-opacity="1" transform="matrix(1.00024 0 0 1 -46.1313 1779.44)"/><path d="M1.37175-7.14362e-06 1.37188 25.5145-1.37162 25.5145-1.37175 7.14362e-06ZM10.1989 15.4186 0.000143927 27.6572-10.1987 15.4188C-10.6837 14.8367-10.6051 13.9718-10.0231 13.4868-9.44109 13.0018-8.5761 13.0804-8.09109 13.6624L1.05393 24.6363-1.05368 24.6363 8.09125 13.6623C8.57626 13.0803 9.44121 13.0016 10.0232 13.4867 10.6052 13.9717 10.6839 14.8366 10.1989 15.4186Z" fill="#000000" fill-rule="nonzero" fill-opacity="1" transform="matrix(1.00024 0 0 -1 166.815 2268.2)"/><path d="M1.37175-7.06915e-06 1.37188 25.8058-1.37162 25.8058-1.37175 7.06915e-06ZM10.1989 15.71 0.00014396 27.9486-10.1987 15.7101C-10.6837 15.1281-10.6051 14.2631-10.0231 13.7781-9.44109 13.2931-8.5761 13.3717-8.09109 13.9537L1.05393 24.9276-1.05368 24.9277 8.09125 13.9537C8.57626 13.3716 9.44121 13.293 10.0232 13.778 10.6052 14.263 10.6839 15.128 10.1989 15.71Z" fill="#000000" fill-rule="nonzero" fill-opacity="1" transform="matrix(1.00024 0 0 -1 237.864 2268.89)"/><path d="M1.37175-7.06915e-06 1.37188 25.8058-1.37162 25.8058-1.37175 7.06915e-06ZM10.1989 15.71 0.00014396 27.9486-10.1987 15.7101C-10.6837 15.1281-10.6051 14.2631-10.0231 13.7781-9.44109 13.2931-8.5761 13.3717-8.09109 13.9537L1.05393 24.9276-1.05368 24.9277 8.09125 13.9537C8.57626 13.3716 9.44121 13.293 10.0232 13.778 10.6052 14.263 10.6839 15.128 10.1989 15.71Z" fill="#000000" fill-rule="nonzero" fill-opacity="1" transform="matrix(1.00024 0 0 -1 306.118 2268.89)"/><path d="M1.37175-7.06915e-06 1.37188 25.8058-1.37162 25.8058-1.37175 7.06915e-06ZM10.1989 15.71 0.00014396 27.9486-10.1987 15.7101C-10.6837 15.1281-10.6051 14.2631-10.0231 13.7781-9.44109 13.2931-8.5761 13.3717-8.09109 13.9537L1.05393 24.9276-1.05368 24.9277 8.09125 13.9537C8.57626 13.3716 9.44121 13.293 10.0232 13.778 10.6052 14.263 10.6839 15.128 10.1989 15.71Z" fill="#000000" fill-rule="nonzero" fill-opacity="1" transform="matrix(1.00024 0 0 -1 377.167 2268.89)"/><path d="M1.37175-7.06915e-06 1.37188 25.8058-1.37162 25.8058-1.37175 7.06915e-06ZM10.1989 15.71 0.00014396 27.9486-10.1987 15.7101C-10.6837 15.1281-10.6051 14.2631-10.0231 13.7781-9.44109 13.2931-8.5761 13.3717-8.09109 13.9537L1.05393 24.9276-1.05368 24.9277 8.09125 13.9537C8.57626 13.3716 9.44121 13.293 10.0232 13.778 10.6052 14.263 10.6839 15.128 10.1989 15.71Z" fill="#000000" fill-rule="nonzero" fill-opacity="1" transform="matrix(1.00024 0 0 -1 447.018 2268.89)"/><path d="M1.37175-7.06915e-06 1.37188 25.8058-1.37162 25.8058-1.37175 7.06915e-06ZM10.1989 15.71 0.00014396 27.9486-10.1987 15.7101C-10.6837 15.1281-10.6051 14.2631-10.0231 13.7781-9.44109 13.2931-8.5761 13.3717-8.09109 13.9537L1.05393 24.9276-1.05368 24.9277 8.09125 13.9537C8.57626 13.3716 9.44121 13.293 10.0232 13.778 10.6052 14.263 10.6839 15.128 10.1989 15.71Z" fill="#000000" fill-rule="nonzero" fill-opacity="1" transform="matrix(1.00024 0 0 -1 519.264 2268.89)"/><path d="M151.042 688.567 659.835 688.567 659.835 793.917 151.042 793.917Z" stroke="#CFC599" stroke-width="3.65799" stroke-linecap="butt" stroke-linejoin="miter" stroke-miterlimit="8" stroke-opacity="1" fill="#F8F5E1" fill-rule="nonzero" fill-opacity="1" transform="matrix(1.00024 0 0 1 -46.1313 1779.44)"/><path d="M142.263 678.591 651.056 678.591 651.056 783.941 142.263 783.941Z" stroke="#CFC599" stroke-width="3.65799" stroke-linecap="butt" stroke-linejoin="miter" stroke-miterlimit="8" stroke-opacity="1" fill="#F8F5E1" fill-rule="nonzero" fill-opacity="1" transform="matrix(1.00024 0 0 1 -46.1313 1779.44)"/><path d="M132.286 668.614 641.08 668.614 641.08 773.965 132.286 773.965Z" stroke="#CFC599" stroke-width="3.65799" stroke-linecap="butt" stroke-linejoin="miter" stroke-miterlimit="8" stroke-opacity="1" fill="#F8F5E1" fill-rule="nonzero" fill-opacity="1" transform="matrix(1.00024 0 0 1 -46.1313 1779.44)"/><path d="M147.849 498.454C147.849 491.933 153.137 486.646 159.659 486.646L606.526 486.646C613.046 486.646 618.334 491.933 618.334 498.454L618.334 620.093C618.334 626.614 613.046 631.901 606.526 631.901L159.659 631.901C153.137 631.901 147.849 626.614 147.849 620.093Z" stroke="#767171" stroke-width="3.65799" stroke-linecap="butt" stroke-linejoin="miter" stroke-miterlimit="8" stroke-opacity="1" fill="#D2D2D2" fill-rule="evenodd" fill-opacity="1" transform="matrix(1.00024 0 0 1 -46.1313 1779.44)"/><text fill="#000000" fill-opacity="1" font-family="Calibri,Calibri_MSFontService,sans-serif" font-style="normal" font-variant="normal" font-weight="400" font-stretch="normal" font-size="73" text-anchor="start" direction="ltr" writing-mode="lr-tb" unicode-bidi="normal" text-decoration="none" transform="matrix(0.39915 0 0 0.399054 239.894 2331)">Pretrained MLM</text><text fill="#000000" fill-opacity="1" font-family="Calibri,Calibri_MSFontService,sans-serif" font-style="normal" font-variant="normal" font-weight="400" font-stretch="normal" font-size="73" text-anchor="start" direction="ltr" writing-mode="lr-tb" unicode-bidi="normal" text-decoration="none" transform="matrix(0.39915 0 0 0.399054 226.749 2366)">Sequence Encoder</text><path d="M65.631 27.0425C65.3951 26.6324 64.8718 26.491 64.4615 26.7265L58.8259 29.9607 60.185 24.9415C60.3087 24.4848 60.0389 24.0143 59.5823 23.8906 59.1256 23.7669 58.655 24.0369 58.5313 24.4936L56.7248 31.1666 52.1409 33.7978 54.7653 24.1021C54.8839 23.6443 54.6089 23.1768 54.151 23.0581 53.7004 22.9413 53.2394 23.2056 53.112 23.6533L50.0398 35.0038 45.83 37.4191C44.8804 36.2067 43.5001 35.4066 41.9758 35.1854L41.9758 30.3324 50.2901 22.0183C50.6241 21.6836 50.6241 21.1412 50.2893 20.8067 49.9548 20.4723 49.4123 20.4725 49.0778 20.8072L41.975 27.9102 41.975 22.6238 46.863 17.7357C47.1915 17.3954 47.1823 16.8533 46.8418 16.5246 46.5101 16.204 45.9836 16.204 45.6519 16.5246L41.975 20.2016 41.975 13.7041C41.975 13.2311 41.5914 12.8476 41.1184 12.8476 40.6454 12.8476 40.2618 13.2311 40.2618 13.7041L40.2618 20.2016 36.5849 16.5246C36.2446 16.196 35.7024 16.2054 35.3738 16.5457 35.0532 16.8776 35.0532 17.4038 35.3738 17.7357L40.2618 22.6238 40.2618 27.9102 33.1589 20.8072C32.8186 20.4785 32.2764 20.488 31.9477 20.8282 31.6272 21.1601 31.6272 21.6864 31.9477 22.0183L40.2618 30.3324 40.2618 35.1854C38.7613 35.4017 37.3986 36.1792 36.4487 37.3609L32.2706 34.895 29.3354 23.5086C29.2171 23.0505 28.7499 22.7749 28.2918 22.8932 27.8336 23.0115 27.558 23.4787 27.6764 23.9368L30.1825 33.6608 25.6302 30.9739 23.906 24.282C23.7877 23.8238 23.3205 23.5483 22.8623 23.6666 22.4042 23.7849 22.1287 24.2521 22.247 24.7103L23.5446 29.7448 17.949 26.4421C17.5403 26.2016 17.014 26.3379 16.7734 26.7466 16.5329 27.1553 16.6692 27.6817 17.0779 27.9222L22.6735 31.2249 17.6381 32.5216C17.1797 32.6384 16.9028 33.1048 17.0197 33.5632 17.1166 33.9432 17.4592 34.2088 17.8513 34.2081 17.9236 34.2082 17.9956 34.1989 18.0655 34.1807L24.7591 32.4557 29.3123 35.1425 19.5841 37.6444C19.1257 37.7612 18.8488 38.2276 18.9658 38.686 19.0626 39.0659 19.4051 39.3316 19.7973 39.3308 19.8695 39.3308 19.9415 39.3219 20.0114 39.3043L31.3979 36.3699 35.5734 38.8349C34.9794 40.2698 34.9701 41.88 35.5477 43.3213L31.3413 45.7374 19.9909 42.6635C19.5396 42.5218 19.0588 42.7725 18.917 43.2239 18.7752 43.6749 19.026 44.1559 19.4773 44.2976 19.4992 44.3044 19.5214 44.3104 19.5438 44.3156L29.2403 46.9408 24.6554 49.5728 17.9867 47.7674C17.5354 47.6257 17.0546 47.8764 16.9128 48.3278 16.771 48.7789 17.0218 49.2599 17.473 49.4016 17.495 49.4083 17.5171 49.4147 17.5396 49.4195L22.5579 50.779 16.9229 54.0129C16.5128 54.2496 16.3721 54.7737 16.6085 55.184 16.845 55.594 17.3693 55.7349 17.7794 55.4982L23.4152 52.2643 22.0568 57.2832C21.9333 57.7386 22.2014 58.2084 22.6564 58.3333 22.7291 58.3541 22.8043 58.3645 22.8799 58.3641 23.2667 58.3641 23.6055 58.1046 23.7064 57.7314L25.5128 51.058 30.0977 48.4268 27.4674 58.1226C27.3434 58.5792 27.6132 59.0502 28.0699 59.1739 28.5266 59.2981 28.9973 59.0282 29.1213 58.5716L32.1936 47.221 36.4033 44.8057C37.3529 46.0184 38.7334 46.8183 40.2574 47.0394L40.2574 51.8922 31.9477 60.2065C31.6191 60.547 31.6285 61.0891 31.9688 61.4176 32.3007 61.7381 32.8269 61.7381 33.1589 61.4176L40.2618 54.3147 40.2618 59.601 35.3738 64.489C35.0451 64.8295 35.0546 65.3715 35.3949 65.7 35.7268 66.021 36.253 66.021 36.5849 65.7L40.2618 62.0231 40.2618 68.5208C40.2618 68.9938 40.6454 69.377 41.1184 69.377 41.5914 69.377 41.975 68.9938 41.975 68.5208L41.975 62.0231 45.6519 65.7C45.9804 66.0405 46.5229 66.0501 46.863 65.7212 47.2034 65.3927 47.2126 64.8502 46.8841 64.5102 46.8769 64.503 46.8701 64.4958 46.863 64.489L41.975 59.601 41.975 54.3147 49.0778 61.4176C49.4067 61.758 49.9488 61.7672 50.2889 61.4387 50.6293 61.1102 50.6389 60.5678 50.31 60.2277 50.3032 60.2205 50.296 60.2133 50.2889 60.2065L41.975 51.8922 41.975 47.0394C43.4754 46.823 44.8381 46.0455 45.788 44.864L49.966 47.33 52.8981 58.7161C52.9951 59.0945 53.336 59.3587 53.7263 59.3595 53.7986 59.3595 53.8704 59.3504 53.9403 59.332 54.3981 59.2142 54.6735 58.7476 54.5562 58.2898L52.0499 48.5641 56.6022 51.2508 58.3281 57.943C58.4259 58.321 58.7668 58.5852 59.1572 58.5852 59.2294 58.5856 59.3013 58.5764 59.3715 58.5584 59.8297 58.4407 60.1055 57.9737 59.9878 57.5159 59.9874 57.5155 59.9874 57.5151 59.9874 57.5147L58.6898 52.4798 64.285 55.7828C64.6926 56.023 65.2179 55.8873 65.4581 55.4798 65.6984 55.0723 65.5631 54.5474 65.1556 54.3067L59.5607 51.0041 64.596 49.7073C65.0542 49.5892 65.33 49.1217 65.2115 48.6639 65.0933 48.2057 64.6259 47.9303 64.1677 48.0484L57.4716 49.7736 52.9193 47.0865 62.6465 44.5802C63.1052 44.4621 63.381 43.9947 63.2624 43.5364 63.1443 43.0778 62.6769 42.802 62.2186 42.9206L50.8345 45.8547 46.6602 43.39C47.2541 41.955 47.2633 40.3448 46.6849 38.9035L50.8912 36.4873 62.2414 39.5587C62.3144 39.5793 62.3903 39.5897 62.4661 39.5895 62.9391 39.5889 63.3219 39.205 63.3215 38.732 63.3211 38.3458 63.062 38.0077 62.6896 37.9065L52.9923 35.283 57.5777 32.6518 64.2511 34.4573C64.3238 34.4779 64.3988 34.4884 64.4746 34.4882 64.9476 34.4876 65.3304 34.1036 65.33 33.6306 65.3296 33.2444 65.0706 32.9064 64.6982 32.8051L59.6789 31.4458 65.314 28.2117C65.7244 27.9764 65.8661 27.453 65.631 27.0426 65.631 27.0425 65.631 27.0425 65.631 27.0425ZM41.1168 45.3949C38.7515 45.3949 36.8341 43.4774 36.8341 41.1124 36.8341 38.7472 38.7515 36.8299 41.1168 36.8299 43.4818 36.8299 45.3993 38.7472 45.3993 41.1124 45.3965 43.4766 43.4806 45.3921 41.1168 45.3949Z" fill="#000000" fill-rule="nonzero" fill-opacity="1" transform="matrix(1 0 0 1.00461 489.927 2330.13)"/><path d="M195.337 685.506C195.337 681.025 198.97 677.394 203.451 677.394L325.694 677.394C330.175 677.394 333.808 681.025 333.808 685.506L333.808 717.965C333.808 722.447 330.175 726.078 325.694 726.078L203.451 726.078C198.97 726.078 195.337 722.447 195.337 717.965Z" stroke="#7030A0" stroke-width="3.65799" stroke-linecap="butt" stroke-linejoin="miter" stroke-miterlimit="8" stroke-opacity="1" fill="#D1BCD2" fill-rule="evenodd" fill-opacity="1" transform="matrix(1.00024 0 0 1 -46.1313 1779.44)"/><text fill="#000000" fill-opacity="1" font-family="Calibri,Calibri_MSFontService,sans-serif" font-style="normal" font-variant="normal" font-weight="400" font-stretch="normal" font-size="73" text-anchor="start" direction="ltr" writing-mode="lr-tb" unicode-bidi="normal" text-decoration="none" transform="matrix(0.39915 0 0 0.399054 99.1045 2489)">My   </text><text fill="#000000" fill-opacity="1" font-family="Calibri,Calibri_MSFontService,sans-serif" font-style="normal" font-variant="normal" font-weight="400" font-stretch="normal" font-size="73" text-anchor="start" direction="ltr" writing-mode="lr-tb" unicode-bidi="normal" text-decoration="none" transform="matrix(0.39915 0 0 0.399054 157.189 2489)">beige_flag</text><text fill="#000000" fill-opacity="1" font-family="Calibri,Calibri_MSFontService,sans-serif" font-style="normal" font-variant="normal" font-weight="400" font-stretch="normal" font-size="73" text-anchor="start" direction="ltr" writing-mode="lr-tb" unicode-bidi="normal" text-decoration="none" transform="matrix(0.39915 0 0 0.399054 299.638 2489)">is  complaining  I  never   </text><text fill="#000000" fill-opacity="1" font-family="Calibri,Calibri_MSFontService,sans-serif" font-style="normal" font-variant="normal" font-weight="400" font-stretch="normal" font-size="73" text-anchor="start" direction="ltr" writing-mode="lr-tb" unicode-bidi="normal" text-decoration="none" transform="matrix(0.39915 0 0 0.399054 99.1045 2524)">have   any   time   to   relax.</text><path d="M200.924 701.736 328.525 701.736" stroke="#595959" stroke-width="2.74349" stroke-linecap="butt" stroke-linejoin="miter" stroke-miterlimit="8" stroke-opacity="1" fill="none" fill-rule="evenodd" transform="matrix(1.00024 0 0 1 -46.1313 1779.44)"/><path d="M254.796 333.276C254.796 330.044 257.416 327.423 260.649 327.423L292.44 327.423C295.672 327.423 298.293 330.044 298.293 333.276L298.293 356.687C298.293 359.92 295.672 362.54 292.44 362.54L260.649 362.54C257.416 362.54 254.796 359.92 254.796 356.687Z" stroke="#7030A0" stroke-width="3.65799" stroke-linecap="butt" stroke-linejoin="miter" stroke-miterlimit="8" stroke-opacity="1" fill="#D1BCD2" fill-rule="evenodd" fill-opacity="1" transform="matrix(1.00024 0 0 1 -46.1313 1779.44)"/><path d="M184.163 333.276C184.163 330.044 186.784 327.423 190.016 327.423L221.807 327.423C225.04 327.423 227.66 330.044 227.66 333.276L227.66 356.687C227.66 359.92 225.04 362.54 221.807 362.54L190.016 362.54C186.784 362.54 184.163 359.92 184.163 356.687Z" stroke="#CFC599" stroke-width="3.65799" stroke-linecap="butt" stroke-linejoin="miter" stroke-miterlimit="8" stroke-opacity="1" fill="#F8F5E1" fill-rule="evenodd" fill-opacity="1" transform="matrix(1.00024 0 0 1 -46.1313 1779.44)"/><path d="M324.63 333.276C324.63 330.044 327.251 327.423 330.483 327.423L362.274 327.423C365.507 327.423 368.127 330.044 368.127 333.276L368.127 356.687C368.127 359.92 365.507 362.54 362.274 362.54L330.483 362.54C327.251 362.54 324.63 359.92 324.63 356.687Z" stroke="#CFC599" stroke-width="3.65799" stroke-linecap="butt" stroke-linejoin="miter" stroke-miterlimit="8" stroke-opacity="1" fill="#F8F5E1" fill-rule="evenodd" fill-opacity="1" transform="matrix(1.00024 0 0 1 -46.1313 1779.44)"/><path d="M394.864 333.675C394.864 330.443 397.484 327.823 400.718 327.823L432.506 327.823C435.739 327.823 438.36 330.443 438.36 333.675L438.36 357.086C438.36 360.319 435.739 362.939 432.506 362.939L400.718 362.939C397.484 362.939 394.864 360.319 394.864 357.086Z" stroke="#CFC599" stroke-width="3.65799" stroke-linecap="butt" stroke-linejoin="miter" stroke-miterlimit="8" stroke-opacity="1" fill="#F8F5E1" fill-rule="evenodd" fill-opacity="1" transform="matrix(1.00024 0 0 1 -46.1313 1779.44)"/><path d="M464.698 333.276C464.698 330.044 467.32 327.423 470.552 327.423L502.341 327.423C505.573 327.423 508.195 330.044 508.195 333.276L508.195 356.687C508.195 359.92 505.573 362.54 502.341 362.54L470.552 362.54C467.32 362.54 464.698 359.92 464.698 356.687Z" stroke="#CFC599" stroke-width="3.65799" stroke-linecap="butt" stroke-linejoin="miter" stroke-miterlimit="8" stroke-opacity="1" fill="#F8F5E1" fill-rule="evenodd" fill-opacity="1" transform="matrix(1.00024 0 0 1 -46.1313 1779.44)"/><path d="M536.129 332.877C536.129 329.645 538.75 327.024 541.983 327.024L573.771 327.024C577.004 327.024 579.625 329.645 579.625 332.877L579.625 356.288C579.625 359.521 577.004 362.141 573.771 362.141L541.983 362.141C538.75 362.141 536.129 359.521 536.129 356.288Z" stroke="#CFC599" stroke-width="3.65799" stroke-linecap="butt" stroke-linejoin="miter" stroke-miterlimit="8" stroke-opacity="1" fill="#F8F5E1" fill-rule="evenodd" fill-opacity="1" transform="matrix(1.00024 0 0 1 -46.1313 1779.44)"/><path d="M1.37175-7.14362e-06 1.37188 25.5145-1.37162 25.5145-1.37175 7.14362e-06ZM10.1989 15.4186 0.000143927 27.6572-10.1987 15.4188C-10.6837 14.8367-10.6051 13.9718-10.0231 13.4868-9.44109 13.0018-8.5761 13.0804-8.09109 13.6624L1.05393 24.6363-1.05368 24.6363 8.09125 13.6623C8.57626 13.0803 9.44121 13.0016 10.0232 13.4867 10.6052 13.9717 10.6839 14.8366 10.1989 15.4186Z" fill="#000000" fill-rule="nonzero" fill-opacity="1" transform="matrix(1.00024 0 0 -1 165.618 2439.79)"/><path d="M1.37175-7.06915e-06 1.37188 25.8058-1.37162 25.8058-1.37175 7.06915e-06ZM10.1989 15.71 0.00014396 27.9486-10.1987 15.7101C-10.6837 15.1281-10.6051 14.2631-10.0231 13.7781-9.44109 13.2931-8.5761 13.3717-8.09109 13.9537L1.05393 24.9276-1.05368 24.9277 8.09125 13.9537C8.57626 13.3716 9.44121 13.293 10.0232 13.778 10.6052 14.263 10.6839 15.128 10.1989 15.71Z" fill="#000000" fill-rule="nonzero" fill-opacity="1" transform="matrix(1.00024 0 0 -1 236.666 2440.88)"/><path d="M1.37175-7.06915e-06 1.37188 25.8058-1.37162 25.8058-1.37175 7.06915e-06ZM10.1989 15.71 0.00014396 27.9486-10.1987 15.7101C-10.6837 15.1281-10.6051 14.2631-10.0231 13.7781-9.44109 13.2931-8.5761 13.3717-8.09109 13.9537L1.05393 24.9276-1.05368 24.9277 8.09125 13.9537C8.57626 13.3716 9.44121 13.293 10.0232 13.778 10.6052 14.263 10.6839 15.128 10.1989 15.71Z" fill="#000000" fill-rule="nonzero" fill-opacity="1" transform="matrix(1.00024 0 0 -1 304.921 2440.88)"/><path d="M1.37175-7.06915e-06 1.37188 25.8058-1.37162 25.8058-1.37175 7.06915e-06ZM10.1989 15.71 0.00014396 27.9486-10.1987 15.7101C-10.6837 15.1281-10.6051 14.2631-10.0231 13.7781-9.44109 13.2931-8.5761 13.3717-8.09109 13.9537L1.05393 24.9276-1.05368 24.9277 8.09125 13.9537C8.57626 13.3716 9.44121 13.293 10.0232 13.778 10.6052 14.263 10.6839 15.128 10.1989 15.71Z" fill="#000000" fill-rule="nonzero" fill-opacity="1" transform="matrix(1.00024 0 0 -1 375.969 2440.88)"/><path d="M1.37175-7.06915e-06 1.37188 25.8058-1.37162 25.8058-1.37175 7.06915e-06ZM10.1989 15.71 0.00014396 27.9486-10.1987 15.7101C-10.6837 15.1281-10.6051 14.2631-10.0231 13.7781-9.44109 13.2931-8.5761 13.3717-8.09109 13.9537L1.05393 24.9276-1.05368 24.9277 8.09125 13.9537C8.57626 13.3716 9.44121 13.293 10.0232 13.778 10.6052 14.263 10.6839 15.128 10.1989 15.71Z" fill="#000000" fill-rule="nonzero" fill-opacity="1" transform="matrix(1.00024 0 0 -1 445.821 2440.88)"/><path d="M1.37175-7.06915e-06 1.37188 25.8058-1.37162 25.8058-1.37175 7.06915e-06ZM10.1989 15.71 0.00014396 27.9486-10.1987 15.7101C-10.6837 15.1281-10.6051 14.2631-10.0231 13.7781-9.44109 13.2931-8.5761 13.3717-8.09109 13.9537L1.05393 24.9276-1.05368 24.9277 8.09125 13.9537C8.57626 13.3716 9.44121 13.293 10.0232 13.778 10.6052 14.263 10.6839 15.128 10.1989 15.71Z" fill="#000000" fill-rule="nonzero" fill-opacity="1" transform="matrix(1.00024 0 0 -1 518.067 2440.88)"/><text fill="#000000" fill-opacity="1" font-family="Calibri,Calibri_MSFontService,sans-serif" font-style="normal" font-variant="normal" font-weight="700" font-stretch="normal" font-size="73" text-anchor="start" direction="ltr" writing-mode="lr-tb" unicode-bidi="normal" text-decoration="none" transform="matrix(0.39915 0 0 0.399054 370.908 2613)">Support Sequences</text><text fill="#000000" fill-opacity="1" font-family="Calibri,Calibri_MSFontService,sans-serif" font-style="normal" font-variant="normal" font-weight="700" font-stretch="normal" font-size="73" text-anchor="start" direction="ltr" writing-mode="lr-tb" unicode-bidi="normal" text-decoration="none" transform="matrix(0.39915 0 0 0.399054 1089.94 2613)">Query Sequence</text><path d="M401.256 153.66 593.792 154.748 601.529 154.88 601.521 154.879 609.379 154.971 609.371 154.971 625.301 155.085 641.223 155.19 649.077 155.269 656.802 155.383 664.349 155.544 671.683 155.765 678.754 156.057 685.522 156.434 691.943 156.908 697.981 157.492 703.583 158.199 708.711 159.042 713.344 159.963 717.542 160.909 721.345 161.896 724.789 162.938 727.906 164.05 730.731 165.246 733.289 166.541 735.615 167.949 737.738 169.482 739.678 171.149 741.47 172.957 743.142 174.915 744.722 177.029 746.25 179.311 747.759 181.772 749.295 184.448 750.768 187.412 752.048 190.656 753.142 194.126 754.072 197.795 754.85 201.637 755.508 205.634 756.502 213.936 757.196 222.517 757.719 231.142 758.214 239.604 758.214 239.592 758.485 243.693 758.485 243.677 758.8 247.656 758.8 247.649 759.116 251.381 759.383 254.807 759.607 257.993 759.786 261.016 760.042 266.828 760.125 269.775 760.189 272.835 760.233 276.083 760.261 279.59 760.281 283.433 760.297 287.681 760.313 292.406 760.321 294.97 760.333 297.681 760.345 300.548 760.361 303.578 760.381 306.783 760.405 310.171 760.429 313.775 760.449 317.614 760.472 321.671 760.492 325.933 760.508 330.385 760.524 335.013 760.54 339.804 760.552 344.742 760.576 355.005 760.592 365.689 760.6 376.68 760.604 387.865 760.592 410.363 760.576 421.445 760.552 432.271 760.524 442.718 760.508 447.766 760.492 452.682 760.472 457.443 760.449 462.04 760.429 466.458 760.405 470.688 760.329 478.836 760.217 486.77 760.07 494.491 759.898 501.99 759.71 509.268 759.515 516.324 759.315 523.155 759.124 529.76 758.948 536.129 758.797 542.27 758.797 542.262 758.673 548.172 758.673 548.164 758.589 553.839 758.589 553.827 758.553 559.262 758.553 559.25 758.573 564.441 758.573 564.425 758.653 569.378 758.653 569.358 758.805 574.067 758.805 574.051 758.992 578.448 758.992 578.44 759.188 582.475 759.188 582.467 759.391 586.174 759.387 586.158 759.611 589.562 759.611 589.542 759.858 592.674 759.854 592.647 760.137 595.532 760.133 595.504 760.457 598.173 760.453 598.133 760.824 600.616 760.816 600.572 761.243 602.894 761.235 602.846 761.726 605.041 761.706 604.953 762.911 609.072 762.871 608.956 764.423 612.902 764.379 612.803 766.339 616.805 766.299 616.725 768.557 620.652 768.497 620.56 770.952 624.136 770.876 624.032 773.589 627.272 773.49 627.165 776.534 630.082 776.415 629.982 779.855 632.596 779.727 632.512 783.63 634.838 783.506 634.775 787.935 636.83 787.848 636.794 790.278 637.724 790.226 637.704 792.816 638.574 792.748 638.554 795.573 639.34 795.501 639.324 798.61 640.01 798.554 639.998 801.91 640.593 801.866 640.585 805.434 641.092 805.394 641.088 809.133 641.515 809.101 641.511 812.972 641.866 812.936 641.866 820.925 642.385 820.889 642.381 828.962 642.692 828.934 642.688 836.788 642.844 836.772 642.844 840.523 642.879 840.515 642.879 844.094 642.895 844.09 642.895 847.462 642.899 850.591 642.899 850.583 642.899 853.508 642.887 853.496 642.887 856.289 642.855 856.273 642.855 861.557 642.736 861.541 642.74 866.565 642.564 866.557 642.564 871.501 642.349 876.541 642.121 881.865 641.89 884.686 641.778 887.643 641.678 890.755 641.586 891.222 641.574 891.286 644.316 890.827 644.328 890.835 644.328 887.727 644.42 887.735 644.42 884.786 644.52 884.79 644.52 881.976 644.631 881.98 644.631 876.669 644.859 871.621 645.09 866.669 645.306 861.629 645.481 856.329 645.601 853.524 645.633 850.591 645.645 847.458 645.645 844.082 645.637 840.499 645.621 836.74 645.585 828.87 645.433 820.766 645.122 812.741 644.599 808.834 644.244 805.063 643.813 801.455 643.298 798.047 642.696 794.875 641.994 791.978 641.187 789.324 640.298 786.822 639.336 782.285 637.233 778.254 634.826 774.691 632.117 771.538 629.092 768.729 625.744 766.207 622.069 763.896 618.054 761.893 613.96 760.297 609.902 759.06 605.684 758.549 603.421 758.114 601.047 757.735 598.521 757.408 595.815 757.124 592.902 756.873 589.749 756.65 586.33 756.446 582.61 756.255 578.568 756.063 574.162 755.911 569.434 755.828 564.461 755.812 559.25 755.847 553.803 755.931 548.12 756.051 542.202 756.207 536.053 756.382 529.68 756.574 523.076 756.769 516.248 756.969 509.196 757.156 501.926 757.328 494.431 757.328 494.435 757.472 486.722 757.472 486.73 757.587 478.801 757.587 478.808 757.659 470.664 757.659 470.672 757.683 466.446 757.707 462.028 757.727 457.431 757.747 452.67 757.767 447.758 757.783 442.71 757.811 432.263 757.831 421.441 757.847 410.359 757.859 387.866 757.855 376.682 757.847 365.693 757.831 355.01 757.811 344.749 757.795 339.812 757.783 335.023 757.767 330.396 757.747 325.945 757.727 321.685 757.707 317.63 757.683 313.793 757.659 310.189 757.635 306.8 757.619 303.593 757.603 300.56 757.591 297.692 757.579 294.98 757.571 292.415 757.555 287.691 757.539 283.447 757.52 279.613 757.488 276.11 757.488 276.116 757.444 272.876 757.448 272.886 757.384 269.836 757.384 269.848 757.3 266.918 757.3 266.939 757.045 261.147 757.049 261.169 756.869 258.164 756.869 258.177 756.646 255.003 756.65 255.014 756.382 251.599 756.382 251.609 756.067 247.877 755.752 243.885 755.476 239.769 754.982 231.309 754.459 222.697 754.459 222.724 753.768 214.184 753.772 214.236 752.787 205.99 752.795 206.049 752.148 202.106 752.156 202.158 751.386 198.373 751.402 198.436 750.492 194.836 750.512 194.913 749.447 191.527 749.479 191.618 748.238 188.474 748.285 188.581 746.857 185.707 746.897 185.779 745.388 183.155 745.408 183.188 743.924 180.769 743.956 180.815 742.463 178.586 742.503 178.644 740.971 176.593 741.023 176.662 739.414 174.776 739.486 174.851 737.77 173.119 737.85 173.194 735.995 171.601 736.082 171.672 734.055 170.206 734.147 170.268 731.912 168.915 732.004 168.966 729.534 167.715 729.618 167.754 726.872 166.591 726.948 166.62 723.899 165.533 723.959 165.554 720.575 164.53 720.627 164.545 716.872 163.57 716.916 163.581 712.758 162.643 712.794 162.65 708.196 161.737 708.244 161.745 703.164 160.911 703.216 160.918 697.654 160.216 697.693 160.221 691.696 159.641 691.728 159.643 685.331 159.171 685.359 159.173 678.611 158.797 678.631 158.798 671.575 158.507 671.591 158.507 664.273 158.287 664.285 158.287 656.747 158.126 656.755 158.126 649.041 158.012 649.049 158.012 641.199 157.933 641.203 157.933 625.281 157.829 609.351 157.714 601.486 157.623 593.752 157.491 593.768 157.492 401.24 156.404ZM875.212 632.991 894.08 642.875 875.715 653.67C875.065 654.057 874.223 653.837 873.84 653.183 873.457 652.532 873.672 651.69 874.327 651.307L890.56 641.762 890.62 644.16 873.939 635.421C873.269 635.066 873.01 634.24 873.361 633.57 873.712 632.895 874.542 632.636 875.212 632.991Z" fill="#172C51" fill-rule="nonzero" fill-opacity="1" transform="matrix(1.00024 0 0 1 -46.1313 1779.44)"/><path d="M758.972 254.317 759.335 260.553 759.335 260.524 759.802 266.383 759.798 266.35 760.373 271.872 760.369 271.837 761.051 277.065 761.047 277.026 761.837 282.002 761.829 281.962 762.735 286.726 762.727 286.686 763.741 291.282 763.733 291.241 764.866 295.711 764.862 295.693 766.027 300.05 766.023 300.04 767.181 304.249 767.173 304.215 768.398 308.248 768.378 308.187 769.739 312.013 769.703 311.924 771.271 315.514 771.211 315.397 773.055 318.72 772.967 318.581 775.162 321.608 775.034 321.459 777.648 324.16 777.564 324.082 780.258 326.44 780.206 326.399 782.768 328.437 782.66 328.359 785.35 330.103 785.238 330.038 786.714 330.808 786.63 330.769 788.235 331.475 788.151 331.442 789.915 332.088 789.839 332.063 791.798 332.652 791.73 332.633 793.917 333.169 793.857 333.156 796.3 333.641 796.252 333.632 798.985 334.07 798.945 334.064 802.002 334.458 801.97 334.454 805.382 334.808 805.358 334.806 809.161 335.123 809.141 335.121 813.267 335.409 813.255 335.408 817.617 335.67 817.605 335.669 822.194 335.905 822.182 335.905 826.987 336.116 826.979 336.115 831.995 336.3 831.983 336.299 837.203 336.456 837.195 336.456 842.61 336.587 842.602 336.586 848.204 336.689 848.196 336.689 853.979 336.763 853.971 336.763 859.929 336.809 859.921 336.809 866.042 336.826 866.038 336.826 872.315 336.814 872.311 336.814 878.74 336.772 878.736 336.772 885.308 336.699 885.3 336.699 896.019 336.512 896.067 339.255 885.34 339.443 878.76 339.515 872.323 339.557 866.038 339.57 859.909 339.552 853.947 339.506 848.157 339.432 842.546 339.329 837.123 339.199 831.895 339.041 826.871 338.857 822.058 338.646 817.457 338.409 813.084 338.146 808.942 337.858 805.115 337.539 801.667 337.182 798.57 336.782 795.789 336.337 793.291 335.841 791.044 335.289 789.013 334.678 787.169 334.004 785.481 333.261 783.913 332.44 781.112 330.625 778.474 328.525 775.712 326.108 772.995 323.297 770.696 320.124 768.781 316.671 767.169 312.977 765.78 309.076 764.543 304.995 763.378 300.763 762.208 296.393 761.067 291.895 760.042 287.258 759.132 282.453 758.334 277.438 757.647 272.174 757.069 266.617 756.598 260.728 756.235 254.477ZM880.069 327.817 898.868 337.834 880.432 348.502C879.778 348.882 878.936 348.658 878.557 348.002 878.177 347.346 878.401 346.507 879.059 346.128L895.357 336.696 895.397 339.094 878.78 330.238C878.11 329.882 877.858 329.051 878.213 328.383 878.568 327.714 879.402 327.461 880.069 327.817Z" fill="#172C51" fill-rule="nonzero" fill-opacity="1" transform="matrix(1.00024 0 0 1 -46.1313 1779.44)"/><path d="M1.37175-4.4348e-06 1.37188 42.4058-1.37161 42.4058-1.37175 4.4348e-06ZM10.1989 32.3101 0.000143997 44.5488-10.1987 32.3101C-10.6837 31.7282-10.6051 30.8632-10.0231 30.3782-9.44105 29.8931-8.57606 29.9718-8.09109 30.5538L1.05394 41.5279-1.05367 41.5279 8.09129 30.5537C8.57626 29.9718 9.44125 29.8931 10.0232 30.3781 10.6052 30.8631 10.6839 31.7281 10.1989 32.3101Z" fill="#000000" fill-rule="nonzero" fill-opacity="1" transform="matrix(1.00024 0 0 -1 1228.55 2079.18)"/><text fill="#000000" fill-opacity="1" font-family="Calibri,Calibri_MSFontService,sans-serif" font-style="normal" font-variant="normal" font-weight="700" font-stretch="normal" font-size="73" text-anchor="start" direction="ltr" writing-mode="lr-tb" unicode-bidi="normal" text-decoration="none" transform="matrix(0.39915 0 0 0.399054 359.76 1918)">Concept Embedding</text><text fill="#000000" fill-opacity="1" font-family="Calibri,Calibri_MSFontService,sans-serif" font-style="normal" font-variant="normal" font-weight="700" font-stretch="normal" font-size="73" text-anchor="start" direction="ltr" writing-mode="lr-tb" unicode-bidi="normal" text-decoration="none" transform="matrix(0.39915 0 0 0.399054 1184.75 1918)">Autoregressive Generation</text><path d="M1.37175-5.93943e-06 1.37188 31.1213-1.37161 31.1213-1.37175 5.93943e-06ZM10.1989 21.0255 0.000144143 33.264-10.1987 21.0255C-10.6837 20.4436-10.6051 19.5786-10.0231 19.0936-9.44105 18.6085-8.5761 18.6872-8.09109 19.2692L1.05394 30.2431-1.05367 30.2431 8.09125 19.2691C8.57626 18.6871 9.44125 18.6085 10.0232 19.0935 10.6052 19.5785 10.6839 20.4434 10.1989 21.0255Z" fill="#000000" fill-rule="nonzero" fill-opacity="1" transform="matrix(1.00024 0 0 -1 871.314 2484.51)"/><path d="M1.37175-5.8775e-06 1.37188 31.4717-1.37161 31.4717-1.37175 5.8775e-06ZM10.1989 21.3758 0.000144074 33.6144-10.1987 21.3759C-10.6837 20.7939-10.6051 19.9289-10.0231 19.444-9.44105 18.959-8.5761 19.0376-8.09109 19.6196L1.05394 30.5935-1.05367 30.5935 8.09125 19.6195C8.57626 19.0375 9.44125 18.9589 10.0232 19.4438 10.6052 19.9289 10.6839 20.7938 10.1989 21.3758Z" fill="#000000" fill-rule="nonzero" fill-opacity="1" transform="matrix(1.00024 0 0 -1 942.762 2485.66)"/><path d="M1.37175-5.8775e-06 1.37188 31.4717-1.37161 31.4717-1.37175 5.8775e-06ZM10.1989 21.3758 0.000144074 33.6144-10.1987 21.3759C-10.6837 20.7939-10.6051 19.9289-10.0231 19.444-9.44105 18.959-8.5761 19.0376-8.09109 19.6196L1.05394 30.5935-1.05367 30.5935 8.09125 19.6195C8.57626 19.0375 9.44125 18.9589 10.0232 19.4438 10.6052 19.9289 10.6839 20.7938 10.1989 21.3758Z" fill="#000000" fill-rule="nonzero" fill-opacity="1" transform="matrix(1.00024 0 0 -1 1010.62 2485.66)"/><path d="M1.37175-5.8775e-06 1.37188 31.4717-1.37161 31.4717-1.37175 5.8775e-06ZM10.1989 21.3758 0.000144074 33.6144-10.1987 21.3759C-10.6837 20.7939-10.6051 19.9289-10.0231 19.444-9.44105 18.959-8.5761 19.0376-8.09109 19.6196L1.05394 30.5935-1.05367 30.5935 8.09125 19.6195C8.57626 19.0375 9.44125 18.9589 10.0232 19.4438 10.6052 19.9289 10.6839 20.7938 10.1989 21.3758Z" fill="#000000" fill-rule="nonzero" fill-opacity="1" transform="matrix(1.00024 0 0 -1 1081.67 2485.66)"/><path d="M1.37175-5.8775e-06 1.37188 31.4717-1.37161 31.4717-1.37175 5.8775e-06ZM10.1989 21.3758 0.000144074 33.6144-10.1987 21.3759C-10.6837 20.7939-10.6051 19.9289-10.0231 19.444-9.44105 18.959-8.5761 19.0376-8.09109 19.6196L1.05394 30.5935-1.05367 30.5935 8.09125 19.6195C8.57626 19.0375 9.44125 18.9589 10.0232 19.4438 10.6052 19.9289 10.6839 20.7938 10.1989 21.3758Z" fill="#000000" fill-rule="nonzero" fill-opacity="1" transform="matrix(1.00024 0 0 -1 1151.92 2485.66)"/><path d="M1.37175-5.8775e-06 1.37188 31.4717-1.37161 31.4717-1.37175 5.8775e-06ZM10.1989 21.3758 0.000144074 33.6144-10.1987 21.3759C-10.6837 20.7939-10.6051 19.9289-10.0231 19.444-9.44105 18.959-8.5761 19.0376-8.09109 19.6196L1.05394 30.5935-1.05367 30.5935 8.09125 19.6195C8.57626 19.0375 9.44125 18.9589 10.0232 19.4438 10.6052 19.9289 10.6839 20.7938 10.1989 21.3758Z" fill="#000000" fill-rule="nonzero" fill-opacity="1" transform="matrix(1.00024 0 0 -1 1223.76 2485.66)"/><path d="M1.37175-7.57779e-06 1.37188 23.93-1.37162 23.93-1.37175 7.57779e-06ZM10.1989 13.8342 0.000144081 26.0728-10.1987 13.8343C-10.6837 13.2523-10.6051 12.3873-10.0231 11.9023-9.44109 11.4173-8.5761 11.4959-8.09109 12.0779L1.05393 23.0519-1.05368 23.0519 8.09125 12.0778C8.57622 11.4959 9.44121 11.4172 10.0232 11.9022 10.6052 12.3872 10.6839 13.2522 10.1989 13.8342Z" fill="#000000" fill-rule="nonzero" fill-opacity="1" transform="matrix(1.00024 0 0 -1 872.112 2391.92)"/><path d="M1.37175-7.49878e-06 1.37188 24.2047-1.37162 24.2047-1.37175 7.49878e-06ZM10.1989 14.1088 0.000143955 26.3474-10.1987 14.1089C-10.6837 13.5269-10.6051 12.6619-10.0231 12.177-9.44109 11.692-8.5761 11.7706-8.09109 12.3526L1.05393 23.3265-1.05368 23.3265 8.09125 12.3525C8.57622 11.7705 9.44121 11.6918 10.0232 12.1768 10.6052 12.6619 10.6839 13.5268 10.1989 14.1088Z" fill="#000000" fill-rule="nonzero" fill-opacity="1" transform="matrix(1.00024 0 0 -1 943.56 2392.99)"/><path d="M1.37175-7.49878e-06 1.37188 24.2047-1.37162 24.2047-1.37175 7.49878e-06ZM10.1989 14.1088 0.000143955 26.3474-10.1987 14.1089C-10.6837 13.5269-10.6051 12.6619-10.0231 12.177-9.44109 11.692-8.5761 11.7706-8.09109 12.3526L1.05393 23.3265-1.05368 23.3265 8.09125 12.3525C8.57622 11.7705 9.44121 11.6918 10.0232 12.1768 10.6052 12.6619 10.6839 13.5268 10.1989 14.1088Z" fill="#000000" fill-rule="nonzero" fill-opacity="1" transform="matrix(1.00024 0 0 -1 1011.42 2392.99)"/><path d="M1.37175-7.49878e-06 1.37188 24.2047-1.37162 24.2047-1.37175 7.49878e-06ZM10.1989 14.1088 0.000143955 26.3474-10.1987 14.1089C-10.6837 13.5269-10.6051 12.6619-10.0231 12.177-9.44109 11.692-8.5761 11.7706-8.09109 12.3526L1.05393 23.3265-1.05368 23.3265 8.09125 12.3525C8.57622 11.7705 9.44121 11.6918 10.0232 12.1768 10.6052 12.6619 10.6839 13.5268 10.1989 14.1088Z" fill="#000000" fill-rule="nonzero" fill-opacity="1" transform="matrix(1.00024 0 0 -1 1082.46 2392.99)"/><path d="M1.37175-7.49878e-06 1.37188 24.2047-1.37162 24.2047-1.37175 7.49878e-06ZM10.1989 14.1088 0.000143955 26.3474-10.1987 14.1089C-10.6837 13.5269-10.6051 12.6619-10.0231 12.177-9.44109 11.692-8.5761 11.7706-8.09109 12.3526L1.05393 23.3265-1.05368 23.3265 8.09125 12.3525C8.57622 11.7705 9.44121 11.6918 10.0232 12.1768 10.6052 12.6619 10.6839 13.5268 10.1989 14.1088Z" fill="#000000" fill-rule="nonzero" fill-opacity="1" transform="matrix(1.00024 0 0 -1 1152.71 2392.99)"/><path d="M1.37175-7.49878e-06 1.37188 24.2047-1.37162 24.2047-1.37175 7.49878e-06ZM10.1989 14.1088 0.000143955 26.3474-10.1987 14.1089C-10.6837 13.5269-10.6051 12.6619-10.0231 12.177-9.44109 11.692-8.5761 11.7706-8.09109 12.3526L1.05393 23.3265-1.05368 23.3265 8.09125 12.3525C8.57622 11.7705 9.44121 11.6918 10.0232 12.1768 10.6052 12.6619 10.6839 13.5268 10.1989 14.1088Z" fill="#000000" fill-rule="nonzero" fill-opacity="1" transform="matrix(1.00024 0 0 -1 1224.56 2392.99)"/><path d="M1.37175-6.25133e-06 1.37188 29.4618-1.37161 29.4618-1.37175 6.25133e-06ZM10.1989 19.366 0.000143989 31.6045-10.1987 19.3661C-10.6837 18.7841-10.6051 17.9191-10.0231 17.4341-9.44109 16.9491-8.5761 17.0277-8.09109 17.6097L1.05394 28.5836-1.05367 28.5837 8.09125 17.6096C8.57626 17.0276 9.44121 16.949 10.0232 17.434 10.6052 17.919 10.6839 18.784 10.1989 19.366Z" fill="#000000" fill-rule="nonzero" fill-opacity="1" transform="matrix(1.00024 0 0 -1 875.306 2179.17)"/><path d="M1.37175-6.18613e-06 1.37188 29.7948-1.37161 29.7948-1.37175 6.18613e-06ZM10.1989 19.6989 0.000144091 31.9375-10.1987 19.699C-10.6837 19.117-10.6051 18.252-10.0231 17.767-9.44109 17.2821-8.5761 17.3607-8.09109 17.9426L1.05394 28.9166-1.05367 28.9166 8.09125 17.9426C8.57626 17.3606 9.44121 17.2819 10.0232 17.7669 10.6052 18.252 10.6839 19.1169 10.1989 19.6989Z" fill="#000000" fill-rule="nonzero" fill-opacity="1" transform="matrix(1.00024 0 0 -1 946.354 2180.3)"/><path d="M1.37175-6.18613e-06 1.37188 29.7948-1.37161 29.7948-1.37175 6.18613e-06ZM10.1989 19.6989 0.000144091 31.9375-10.1987 19.699C-10.6837 19.117-10.6051 18.252-10.0231 17.767-9.44109 17.2821-8.5761 17.3607-8.09109 17.9426L1.05394 28.9166-1.05367 28.9166 8.09125 17.9426C8.57626 17.3606 9.44121 17.2819 10.0232 17.7669 10.6052 18.252 10.6839 19.1169 10.1989 19.6989Z" fill="#000000" fill-rule="nonzero" fill-opacity="1" transform="matrix(1.00024 0 0 -1 1014.61 2180.3)"/><path d="M1.37175-6.18613e-06 1.37188 29.7948-1.37161 29.7948-1.37175 6.18613e-06ZM10.1989 19.6989 0.000144091 31.9375-10.1987 19.699C-10.6837 19.117-10.6051 18.252-10.0231 17.767-9.44109 17.2821-8.5761 17.3607-8.09109 17.9426L1.05394 28.9166-1.05367 28.9166 8.09125 17.9426C8.57626 17.3606 9.44121 17.2819 10.0232 17.7669 10.6052 18.252 10.6839 19.1169 10.1989 19.6989Z" fill="#000000" fill-rule="nonzero" fill-opacity="1" transform="matrix(1.00024 0 0 -1 1085.66 2180.3)"/><path d="M1.37175-6.18613e-06 1.37188 29.7948-1.37161 29.7948-1.37175 6.18613e-06ZM10.1989 19.6989 0.000144091 31.9375-10.1987 19.699C-10.6837 19.117-10.6051 18.252-10.0231 17.767-9.44109 17.2821-8.5761 17.3607-8.09109 17.9426L1.05394 28.9166-1.05367 28.9166 8.09125 17.9426C8.57626 17.3606 9.44121 17.2819 10.0232 17.7669 10.6052 18.252 10.6839 19.1169 10.1989 19.6989Z" fill="#000000" fill-rule="nonzero" fill-opacity="1" transform="matrix(1.00024 0 0 -1 1155.51 2180.3)"/><path d="M1.37175-6.18613e-06 1.37188 29.7948-1.37161 29.7948-1.37175 6.18613e-06ZM10.1989 19.6989 0.000144091 31.9375-10.1987 19.699C-10.6837 19.117-10.6051 18.252-10.0231 17.767-9.44109 17.2821-8.5761 17.3607-8.09109 17.9426L1.05394 28.9166-1.05367 28.9166 8.09125 17.9426C8.57626 17.3606 9.44121 17.2819 10.0232 17.7669 10.6052 18.252 10.6839 19.1169 10.1989 19.6989Z" fill="#000000" fill-rule="nonzero" fill-opacity="1" transform="matrix(1.00024 0 0 -1 1227.75 2180.3)"/><path d="M800.701 277.941 839.808 287.718 839.808 391.472 800.701 401.248Z" stroke="#767171" stroke-width="3.65799" stroke-linecap="butt" stroke-linejoin="miter" stroke-miterlimit="8" stroke-opacity="1" fill="#D2D2D2" fill-rule="evenodd" fill-opacity="1" transform="matrix(1.00024 0 0 1 -46.1313 1779.44)"/><text fill="#000000" fill-opacity="1" font-family="Calibri,Calibri_MSFontService,sans-serif" font-style="normal" font-variant="normal" font-weight="400" font-stretch="normal" font-size="73" text-anchor="start" direction="ltr" writing-mode="lr-tb" unicode-bidi="normal" text-decoration="none" transform="matrix(2.44408e-17 0.399054 -0.39915 2.4435e-17 763.117 2082)">Linear</text><path d="M799.903 584.015 839.01 593.792 839.01 697.546 799.903 707.323Z" stroke="#767171" stroke-width="3.65799" stroke-linecap="butt" stroke-linejoin="miter" stroke-miterlimit="8" stroke-opacity="1" fill="#D2D2D2" fill-rule="evenodd" fill-opacity="1" transform="matrix(1.00024 0 0 1 -46.1313 1779.44)"/><text fill="#000000" fill-opacity="1" font-family="Calibri,Calibri_MSFontService,sans-serif" font-style="normal" font-variant="normal" font-weight="400" font-stretch="normal" font-size="73" text-anchor="start" direction="ltr" writing-mode="lr-tb" unicode-bidi="normal" text-decoration="none" transform="matrix(2.44408e-17 0.399054 -0.39915 2.4435e-17 762.47 2388)">Linear</text><path d="M147.849 412.821C147.849 407.753 151.958 403.643 157.028 403.643L612.747 403.643C617.815 403.643 621.925 407.753 621.925 412.821L621.925 449.534C621.925 454.602 617.815 458.712 612.747 458.712L157.028 458.712C151.958 458.712 147.849 454.602 147.849 449.534Z" stroke="#767171" stroke-width="3.65799" stroke-linecap="butt" stroke-linejoin="miter" stroke-miterlimit="8" stroke-opacity="1" fill="#D2D2D2" fill-rule="evenodd" fill-opacity="1" transform="matrix(1.00024 0 0 1 -46.1313 1779.44)"/><text fill="#000000" fill-opacity="1" font-family="Calibri,Calibri_MSFontService,sans-serif" font-style="normal" font-variant="normal" font-weight="400" font-stretch="normal" font-size="73" text-anchor="start" direction="ltr" writing-mode="lr-tb" unicode-bidi="normal" text-decoration="none" transform="matrix(0.39915 0 0 0.399054 213.991 2220)">Transformer Encoder</text><path d="M185.759 263.509C185.759 260.239 188.41 257.589 191.679 257.589L223.337 257.589C226.606 257.589 229.256 260.239 229.256 263.509L229.256 287.186C229.256 290.455 226.606 293.105 223.337 293.105L191.679 293.105C188.41 293.105 185.759 290.455 185.759 287.186Z" stroke="#7030A0" stroke-width="3.65799" stroke-linecap="butt" stroke-linejoin="miter" stroke-miterlimit="8" stroke-opacity="1" fill="#D1BCD2" fill-rule="evenodd" fill-opacity="1" transform="matrix(1.00024 0 0 1 -46.1313 1779.44)"/><path d="M257.19 263.509C257.19 260.239 259.84 257.589 263.11 257.589L294.767 257.589C298.037 257.589 300.687 260.239 300.687 263.509L300.687 287.186C300.687 290.455 298.037 293.105 294.767 293.105L263.11 293.105C259.84 293.105 257.19 290.455 257.19 287.186Z" stroke="#7030A0" stroke-width="3.65799" stroke-linecap="butt" stroke-linejoin="miter" stroke-miterlimit="8" stroke-opacity="1" fill="#D1BCD2" fill-rule="evenodd" fill-opacity="1" transform="matrix(1.00024 0 0 1 -46.1313 1779.44)"/><path d="M325.827 263.509C325.827 260.239 328.477 257.589 331.746 257.589L363.405 257.589C366.674 257.589 369.324 260.239 369.324 263.509L369.324 287.186C369.324 290.455 366.674 293.105 363.405 293.105L331.746 293.105C328.477 293.105 325.827 290.455 325.827 287.186Z" stroke="#7030A0" stroke-width="3.65799" stroke-linecap="butt" stroke-linejoin="miter" stroke-miterlimit="8" stroke-opacity="1" fill="#D1BCD2" fill-rule="evenodd" fill-opacity="1" transform="matrix(1.00024 0 0 1 -46.1313 1779.44)"/><path d="M394.065 263.509C394.065 260.239 396.716 257.589 399.983 257.589L431.644 257.589C434.913 257.589 437.562 260.239 437.562 263.509L437.562 287.186C437.562 290.455 434.913 293.105 431.644 293.105L399.983 293.105C396.716 293.105 394.065 290.455 394.065 287.186Z" stroke="#7030A0" stroke-width="3.65799" stroke-linecap="butt" stroke-linejoin="miter" stroke-miterlimit="8" stroke-opacity="1" fill="#D1BCD2" fill-rule="evenodd" fill-opacity="1" transform="matrix(1.00024 0 0 1 -46.1313 1779.44)"/><path d="M469.886 263.509C469.886 260.239 472.535 257.589 475.804 257.589L507.465 257.589C510.733 257.589 513.383 260.239 513.383 263.509L513.383 287.186C513.383 290.455 510.733 293.105 507.465 293.105L475.804 293.105C472.535 293.105 469.886 290.455 469.886 287.186Z" stroke="#7030A0" stroke-width="3.65799" stroke-linecap="butt" stroke-linejoin="miter" stroke-miterlimit="8" stroke-opacity="1" fill="#D1BCD2" fill-rule="evenodd" fill-opacity="1" transform="matrix(1.00024 0 0 1 -46.1313 1779.44)"/><path d="M540.119 263.509C540.119 260.239 542.769 257.589 546.037 257.589L577.698 257.589C580.966 257.589 583.616 260.239 583.616 263.509L583.616 287.186C583.616 290.455 580.966 293.105 577.698 293.105L546.037 293.105C542.769 293.105 540.119 290.455 540.119 287.186Z" stroke="#7030A0" stroke-width="3.65799" stroke-linecap="butt" stroke-linejoin="miter" stroke-miterlimit="8" stroke-opacity="1" fill="#D1BCD2" fill-rule="evenodd" fill-opacity="1" transform="matrix(1.00024 0 0 1 -46.1313 1779.44)"/><path d="M1.37175-8.27162e-06 1.37188 21.7433-1.37162 21.7433-1.37175 8.27162e-06ZM10.1989 11.6475 0.000144079 23.886-10.1987 11.6476C-10.6837 11.0656-10.6051 10.2006-10.0231 9.7156-9.44109 9.23059-8.5761 9.3092-8.09113 9.89122L1.05393 20.8651-1.05368 20.8652 8.09125 9.8911C8.57622 9.30912 9.44121 9.23047 10.0232 9.71548 10.6052 10.2004 10.6839 11.0654 10.1989 11.6475Z" fill="#000000" fill-rule="nonzero" fill-opacity="1" transform="matrix(1.00024 0 0 -1 160.029 2181.03)"/><path d="M1.37175-8.27162e-06 1.37188 21.7433-1.37162 21.7433-1.37175 8.27162e-06ZM10.1989 11.6475 0.000144079 23.886-10.1987 11.6476C-10.6837 11.0656-10.6051 10.2006-10.0231 9.7156-9.44109 9.23059-8.5761 9.3092-8.09113 9.89122L1.05393 20.8651-1.05368 20.8652 8.09125 9.8911C8.57622 9.30912 9.44121 9.23047 10.0232 9.71548 10.6052 10.2004 10.6839 11.0654 10.1989 11.6475Z" fill="#000000" fill-rule="nonzero" fill-opacity="1" transform="matrix(1.00024 0 0 -1 230.679 2179.03)"/><path d="M1.37175-8.27162e-06 1.37188 21.7433-1.37162 21.7433-1.37175 8.27162e-06ZM10.1989 11.6475 0.000144079 23.886-10.1987 11.6476C-10.6837 11.0656-10.6051 10.2006-10.0231 9.7156-9.44109 9.23059-8.5761 9.3092-8.09113 9.89122L1.05393 20.8651-1.05368 20.8652 8.09125 9.8911C8.57622 9.30912 9.44121 9.23047 10.0232 9.71548 10.6052 10.2004 10.6839 11.0654 10.1989 11.6475Z" fill="#000000" fill-rule="nonzero" fill-opacity="1" transform="matrix(1.00024 0 0 -1 300.929 2178.23)"/><path d="M1.37175-8.27162e-06 1.37188 21.7433-1.37162 21.7433-1.37175 8.27162e-06ZM10.1989 11.6475 0.000144079 23.886-10.1987 11.6476C-10.6837 11.0656-10.6051 10.2006-10.0231 9.7156-9.44109 9.23059-8.5761 9.3092-8.09113 9.89122L1.05393 20.8651-1.05368 20.8652 8.09125 9.8911C8.57622 9.30912 9.44121 9.23047 10.0232 9.71548 10.6052 10.2004 10.6839 11.0654 10.1989 11.6475Z" fill="#000000" fill-rule="nonzero" fill-opacity="1" transform="matrix(1.00024 0 0 -1 370.78 2178.23)"/><path d="M1.37175-8.27162e-06 1.37188 21.7433-1.37162 21.7433-1.37175 8.27162e-06ZM10.1989 11.6475 0.000144079 23.886-10.1987 11.6476C-10.6837 11.0656-10.6051 10.2006-10.0231 9.7156-9.44109 9.23059-8.5761 9.3092-8.09113 9.89122L1.05393 20.8651-1.05368 20.8652 8.09125 9.8911C8.57622 9.30912 9.44121 9.23047 10.0232 9.71548 10.6052 10.2004 10.6839 11.0654 10.1989 11.6475Z" fill="#000000" fill-rule="nonzero" fill-opacity="1" transform="matrix(1.00024 0 0 -1 445.821 2179.83)"/><path d="M1.37175-8.27162e-06 1.37188 21.7433-1.37162 21.7433-1.37175 8.27162e-06ZM10.1989 11.6475 0.000144079 23.886-10.1987 11.6476C-10.6837 11.0656-10.6051 10.2006-10.0231 9.7156-9.44109 9.23059-8.5761 9.3092-8.09113 9.89122L1.05393 20.8651-1.05368 20.8652 8.09125 9.8911C8.57622 9.30912 9.44121 9.23047 10.0232 9.71548 10.6052 10.2004 10.6839 11.0654 10.1989 11.6475Z" fill="#000000" fill-rule="nonzero" fill-opacity="1" transform="matrix(1.00024 0 0 -1 516.869 2178.23)"/><path d="M1.37175-8.27162e-06 1.37188 21.7433-1.37162 21.7433-1.37175 8.27162e-06ZM10.1989 11.6475 0.000144079 23.886-10.1987 11.6476C-10.6837 11.0656-10.6051 10.2006-10.0231 9.7156-9.44109 9.23059-8.5761 9.3092-8.09113 9.89122L1.05393 20.8651-1.05368 20.8652 8.09125 9.8911C8.57622 9.30912 9.44121 9.23047 10.0232 9.71548 10.6052 10.2004 10.6839 11.0654 10.1989 11.6475Z" fill="#000000" fill-rule="nonzero" fill-opacity="1" transform="matrix(1.00024 0 0 -1 160.429 2036.57)"/><path d="M1.37175-8.27162e-06 1.37188 21.7433-1.37162 21.7433-1.37175 8.27162e-06ZM10.1989 11.6475 0.000144079 23.886-10.1987 11.6476C-10.6837 11.0656-10.6051 10.2006-10.0231 9.7156-9.44109 9.23059-8.5761 9.3092-8.09113 9.89122L1.05393 20.8651-1.05368 20.8652 8.09125 9.8911C8.57622 9.30912 9.44121 9.23047 10.0232 9.71548 10.6052 10.2004 10.6839 11.0654 10.1989 11.6475Z" fill="#000000" fill-rule="nonzero" fill-opacity="1" transform="matrix(1.00024 0 0 -1 231.078 2034.57)"/><path d="M1.37175-8.27162e-06 1.37188 21.7433-1.37162 21.7433-1.37175 8.27162e-06ZM10.1989 11.6475 0.000144079 23.886-10.1987 11.6476C-10.6837 11.0656-10.6051 10.2006-10.0231 9.7156-9.44109 9.23059-8.5761 9.3092-8.09113 9.89122L1.05393 20.8651-1.05368 20.8652 8.09125 9.8911C8.57622 9.30912 9.44121 9.23047 10.0232 9.71548 10.6052 10.2004 10.6839 11.0654 10.1989 11.6475Z" fill="#000000" fill-rule="nonzero" fill-opacity="1" transform="matrix(1.00024 0 0 -1 299.732 2033.78)"/><path d="M1.37175-8.27162e-06 1.37188 21.7433-1.37162 21.7433-1.37175 8.27162e-06ZM10.1989 11.6475 0.000144079 23.886-10.1987 11.6476C-10.6837 11.0656-10.6051 10.2006-10.0231 9.7156-9.44109 9.23059-8.5761 9.3092-8.09113 9.89122L1.05393 20.8651-1.05368 20.8652 8.09125 9.8911C8.57622 9.30912 9.44121 9.23047 10.0232 9.71548 10.6052 10.2004 10.6839 11.0654 10.1989 11.6475Z" fill="#000000" fill-rule="nonzero" fill-opacity="1" transform="matrix(1.00024 0 0 -1 367.188 2033.78)"/><path d="M1.37175-8.27162e-06 1.37188 21.7433-1.37162 21.7433-1.37175 8.27162e-06ZM10.1989 11.6475 0.000144079 23.886-10.1987 11.6476C-10.6837 11.0656-10.6051 10.2006-10.0231 9.7156-9.44109 9.23059-8.5761 9.3092-8.09113 9.89122L1.05393 20.8651-1.05368 20.8652 8.09125 9.8911C8.57622 9.30912 9.44121 9.23047 10.0232 9.71548 10.6052 10.2004 10.6839 11.0654 10.1989 11.6475Z" fill="#000000" fill-rule="nonzero" fill-opacity="1" transform="matrix(1.00024 0 0 -1 442.228 2035.37)"/><path d="M1.37175-8.27162e-06 1.37188 21.7433-1.37162 21.7433-1.37175 8.27162e-06ZM10.1989 11.6475 0.000144079 23.886-10.1987 11.6476C-10.6837 11.0656-10.6051 10.2006-10.0231 9.7156-9.44109 9.23059-8.5761 9.3092-8.09113 9.89122L1.05393 20.8651-1.05368 20.8652 8.09125 9.8911C8.57622 9.30912 9.44121 9.23047 10.0232 9.71548 10.6052 10.2004 10.6839 11.0654 10.1989 11.6475Z" fill="#000000" fill-rule="nonzero" fill-opacity="1" transform="matrix(1.00024 0 0 -1 513.277 2033.78)"/><text fill="#000000" fill-opacity="1" font-family="Calibri,Calibri_MSFontService,sans-serif" font-style="normal" font-variant="normal" font-weight="700" font-stretch="normal" font-size="73" text-anchor="start" direction="ltr" writing-mode="lr-tb" unicode-bidi="normal" text-decoration="none" transform="matrix(0.39915 0 0 0.399054 147.397 1965)">Aggregation</text><path d="M356.953 143.793C356.953 140.523 359.604 137.873 362.873 137.873L394.531 137.873C397.8 137.873 400.45 140.523 400.45 143.793L400.45 167.469C400.45 170.739 397.8 173.389 394.531 173.389L362.873 173.389C359.604 173.389 356.953 170.739 356.953 167.469Z" stroke="#7030A0" stroke-width="3.65799" stroke-linecap="butt" stroke-linejoin="miter" stroke-miterlimit="8" stroke-opacity="1" fill="#D1BCD2" fill-rule="evenodd" fill-opacity="1" transform="matrix(1.00024 0 0 1 -46.1313 1779.44)"/><path d="M898.868 324.963C898.868 321.693 901.518 319.043 904.786 319.043L936.447 319.043C939.715 319.043 942.365 321.693 942.365 324.963L942.365 348.64C942.365 351.909 939.715 354.559 936.447 354.559L904.786 354.559C901.518 354.559 898.868 351.909 898.868 348.64Z" stroke="#7030A0" stroke-width="3.65799" stroke-linecap="butt" stroke-linejoin="miter" stroke-miterlimit="8" stroke-opacity="1" fill="#D1BCD2" fill-rule="evenodd" fill-opacity="1" transform="matrix(1.00024 0 0 1 -46.1313 1779.44)"/><path d="M895.676 628.242C895.676 624.974 898.326 622.324 901.594 622.324L933.255 622.324C936.523 622.324 939.173 624.974 939.173 628.242L939.173 651.922C939.173 655.19 936.523 657.84 933.255 657.84L901.594 657.84C898.326 657.84 895.676 655.19 895.676 651.922Z" stroke="#7030A0" stroke-width="3.65799" stroke-linecap="butt" stroke-linejoin="miter" stroke-miterlimit="8" stroke-opacity="1" fill="#D1BCD2" fill-rule="evenodd" fill-opacity="1" transform="matrix(1.00024 0 0 1 -46.1313 1779.44)"/></g></g></g></g></g></svg>